<?xml version="1.0" encoding="UTF-8" standalone="no"?>
<svg
   xmlns:dc="http://purl.org/dc/elements/1.1/"
   xmlns:cc="http://creativecommons.org/ns#"
   xmlns:rdf="http://www.w3.org/1999/02/22-rdf-syntax-ns#"
   xmlns:svg="http://www.w3.org/2000/svg"
   xmlns="http://www.w3.org/2000/svg"
   xmlns:sodipodi="http://sodipodi.sourceforge.net/DTD/sodipodi-0.dtd"
   xmlns:inkscape="http://www.inkscape.org/namespaces/inkscape"
   id="Layer_1"
   style="enable-background:new 0 0 64 64;"
   version="1.1"
   viewBox="0 0 64 64"
   xml:space="preserve"
   sodipodi:docname="map_marker_building.svg"
   inkscape:version="0.92.1 r15371"
   inkscape:export-filename="D:\DEV\Projects\prague-meetup\public\marker-culture.png"
   inkscape:export-xdpi="120"
   inkscape:export-ydpi="120"><metadata
     id="metadata14"><rdf:RDF><cc:Work
         rdf:about=""><dc:format>image/svg+xml</dc:format><dc:type
           rdf:resource="http://purl.org/dc/dcmitype/StillImage" /><dc:title /></cc:Work></rdf:RDF></metadata><defs
     id="defs12" /><sodipodi:namedview
     pagecolor="#ffffff"
     bordercolor="#666666"
     borderopacity="1"
     objecttolerance="10"
     gridtolerance="10"
     guidetolerance="10"
     inkscape:pageopacity="0"
     inkscape:pageshadow="2"
     inkscape:window-width="875"
     inkscape:window-height="773"
     id="namedview10"
     showgrid="false"
     inkscape:zoom="0.921875"
     inkscape:cx="-54.045127"
     inkscape:cy="-17.961471"
     inkscape:window-x="935"
     inkscape:window-y="69"
     inkscape:window-maximized="0"
     inkscape:current-layer="Layer_1" /><style
     type="text/css"
     id="style2">
	.st0{fill:#134563;}
</style><path
     class="st0"
     d="M 32,55.7 31.1,54.6 C 30.5,53.8 15.2,35.9 15.2,25.2 15.2,15.9 22.8,8.4 32,8.4 c 9.2,0 16.8,7.6 16.8,16.8 0,10.7 -15.3,28.7 -15.9,29.4 z"
     id="Fill-55"
     inkscape:connector-curvature="0"
     style="fill:#4338ca;stroke:none;fill-opacity:1"
     sodipodi:nodetypes="ccssscc" /><path
     inkscape:connector-curvature="0"
     d="m 38.340949,17.980748 a 0.52598886,0.52598886 0 0 0 -0.761632,-0.470234 l -8.415822,4.207911 a 0.52598886,0.52598886 0 0 0 -0.290346,0.470234 v 3.30321 l -5.95209,1.98403 a 0.52598886,0.52598886 0 0 0 -0.359776,0.498638 v 5.785876 a 0.52598886,0.52598886 0 0 0 0.525989,0.52599 h 9.467799 a 0.52598886,0.52598886 0 0 0 0.52599,-0.52599 v -1.577966 h 1.051977 v 1.577966 a 0.52598886,0.52598886 0 0 0 0.525989,0.52599 h 3.155934 a 0.52598886,0.52598886 0 0 0 0.525988,-0.52599 z m -13.67571,11.045766 h 1.051977 v 1.051978 h -1.051977 z m 2.103955,0 h 1.051978 v 1.051978 h -1.051978 z m -1.051978,2.103956 v 1.051977 H 24.665239 V 31.13047 Z m 1.051978,0 h 1.051978 v 1.051977 h -1.051978 z m 9.4678,-10.519778 v 1.051978 h -1.051978 v -1.051978 z m -5.259889,2.103955 h 1.051978 v 1.051978 h -1.051978 z m 1.051978,2.103956 v 1.051977 h -1.051978 v -1.051977 z m -1.051978,2.103955 h 1.051978 v 1.051979 h -1.051978 z m 2.103956,0 h 1.051977 v 1.051979 h -1.051977 z m -1.051978,2.103956 v 1.051978 h -1.051978 v -1.051978 z m 1.051978,0 h 1.051977 v 1.051978 h -1.051977 z m 3.155933,-2.103956 v 1.051979 h -1.051978 v -1.051979 z m -1.051978,2.103956 h 1.051978 v 1.051978 h -1.051978 z m -2.103955,-4.207911 h 1.051977 v 1.051977 h -1.051977 z m 3.155933,0 v 1.051977 h -1.051978 v -1.051977 z m -2.103956,-2.103956 v 1.051978 h -1.051977 v -1.051978 z m 1.051978,0 h 1.051978 v 1.051978 h -1.051978 z"
     id="path2-2"
     style="fill:#e1dfff;fill-opacity:1;stroke-width:1.05197775" /></svg>