<?xml version="1.0" encoding="UTF-8" standalone="no"?>
<svg
   xmlns:dc="http://purl.org/dc/elements/1.1/"
   xmlns:cc="http://creativecommons.org/ns#"
   xmlns:rdf="http://www.w3.org/1999/02/22-rdf-syntax-ns#"
   xmlns:svg="http://www.w3.org/2000/svg"
   xmlns="http://www.w3.org/2000/svg"
   xmlns:sodipodi="http://sodipodi.sourceforge.net/DTD/sodipodi-0.dtd"
   xmlns:inkscape="http://www.inkscape.org/namespaces/inkscape"
   id="Layer_1"
   style="enable-background:new 0 0 64 64;"
   version="1.1"
   viewBox="0 0 64 64"
   xml:space="preserve"
   sodipodi:docname="map_marker_tree.svg"
   inkscape:version="0.92.1 r15371"><metadata
     id="metadata14"><rdf:RDF><cc:Work
         rdf:about=""><dc:format>image/svg+xml</dc:format><dc:type
           rdf:resource="http://purl.org/dc/dcmitype/StillImage" /><dc:title></dc:title></cc:Work></rdf:RDF></metadata><defs
     id="defs12" /><sodipodi:namedview
     pagecolor="#ffffff"
     bordercolor="#666666"
     borderopacity="1"
     objecttolerance="10"
     gridtolerance="10"
     guidetolerance="10"
     inkscape:pageopacity="0"
     inkscape:pageshadow="2"
     inkscape:window-width="1278"
     inkscape:window-height="1368"
     id="namedview10"
     showgrid="false"
     inkscape:zoom="1.84375"
     inkscape:cx="16.083583"
     inkscape:cy="2.6652959"
     inkscape:window-x="1273"
     inkscape:window-y="0"
     inkscape:window-maximized="0"
     inkscape:current-layer="Layer_1" /><style
     type="text/css"
     id="style2">
	.st0{fill:#134563;}
</style><path
     class="st0"
     d="M 32,55.7 31.1,54.6 C 30.5,53.8 15.2,35.9 15.2,25.2 15.2,15.9 22.8,8.4 32,8.4 c 9.2,0 16.8,7.6 16.8,16.8 0,10.7 -15.3,28.7 -15.9,29.4 z"
     id="Fill-55"
     inkscape:connector-curvature="0"
     style="fill:#4338ca;stroke:none;fill-opacity:1"
     sodipodi:nodetypes="ccssscc" /><path
     inkscape:connector-curvature="0"
     d="m 32.389277,14.712755 a 0.72771581,0.72771581 0 0 0 -1.21092,0 l -4.366295,6.549442 a 0.72771581,0.72771581 0 0 0 0.60546,1.13087 h 0.142632 l -2.942882,4.708321 a 0.72771581,0.72771581 0 0 0 0.617102,1.113405 h 0.277988 l -2.383997,4.767995 a 0.72771581,0.72771581 0 0 0 0.650578,1.053733 h 6.549442 v 3.638578 h 2.910864 v -3.638578 h 6.549442 a 0.72771581,0.72771581 0 0 0 0.650578,-1.053733 l -2.382541,-4.767995 h 0.277987 a 0.72771581,0.72771581 0 0 0 0.617103,-1.113405 l -2.944339,-4.708321 h 0.142632 a 0.72771581,0.72771581 0 0 0 0.605461,-1.13087 z"
     id="path2"
     style="fill:#e1dfff;fill-opacity:1;stroke-width:1.45543158" /></svg>