<?xml version="1.0" encoding="UTF-8" standalone="no"?>
<svg
   xmlns:dc="http://purl.org/dc/elements/1.1/"
   xmlns:cc="http://creativecommons.org/ns#"
   xmlns:rdf="http://www.w3.org/1999/02/22-rdf-syntax-ns#"
   xmlns:svg="http://www.w3.org/2000/svg"
   xmlns="http://www.w3.org/2000/svg"
   xmlns:sodipodi="http://sodipodi.sourceforge.net/DTD/sodipodi-0.dtd"
   xmlns:inkscape="http://www.inkscape.org/namespaces/inkscape"
   id="Layer_1"
   style="enable-background:new 0 0 64 64;"
   version="1.1"
   viewBox="0 0 64 64"
   xml:space="preserve"
   sodipodi:docname="map_marker_cup.svg"
   inkscape:version="0.92.1 r15371"
   inkscape:export-filename="D:\DEV\Projects\prague-meetup\public\marker-food.png"
   inkscape:export-xdpi="120"
   inkscape:export-ydpi="120"><metadata
     id="metadata14"><rdf:RDF><cc:Work
         rdf:about=""><dc:format>image/svg+xml</dc:format><dc:type
           rdf:resource="http://purl.org/dc/dcmitype/StillImage" /><dc:title /></cc:Work></rdf:RDF></metadata><defs
     id="defs12" /><sodipodi:namedview
     pagecolor="#ffffff"
     bordercolor="#666666"
     borderopacity="1"
     objecttolerance="10"
     gridtolerance="10"
     guidetolerance="10"
     inkscape:pageopacity="0"
     inkscape:pageshadow="2"
     inkscape:window-width="1278"
     inkscape:window-height="1368"
     id="namedview10"
     showgrid="false"
     inkscape:zoom="5.2149124"
     inkscape:cx="50.167878"
     inkscape:cy="20.686049"
     inkscape:window-x="1273"
     inkscape:window-y="0"
     inkscape:window-maximized="0"
     inkscape:current-layer="Layer_1" /><style
     type="text/css"
     id="style2">
	.st0{fill:#134563;}
</style><path
     class="st0"
     d="M 32,55.7 31.1,54.6 C 30.5,53.8 15.2,35.9 15.2,25.2 15.2,15.9 22.8,8.4 32,8.4 c 9.2,0 16.8,7.6 16.8,16.8 0,10.7 -15.3,28.7 -15.9,29.4 z"
     id="Fill-55"
     inkscape:connector-curvature="0"
     style="fill:#4338ca;stroke:none;fill-opacity:1"
     sodipodi:nodetypes="ccssscc" /><g
     style="fill:#e1dfff;fill-opacity:1"
     id="g4528"
     transform="matrix(1.1436536,0,0,1.1436536,23.406777,16.690452)"><path
       id="path4514"
       d="M 0.5,6 A 0.5,0.5 0 0 0 0.012,6.608 l 1.652,7.434 A 2.5,2.5 0 0 0 4.104,16 h 5.792 a 2.5,2.5 0 0 0 2.44,-1.958 l 0.131,-0.59 a 3,3 0 0 0 1.3,-5.854 l 0.221,-0.99 A 0.5,0.5 0 0 0 13.5,6 Z M 13,12.5 A 2.01,2.01 0 0 1 12.684,12.475 L 13.551,8.577 A 2.001,2.001 0 0 1 13,12.5 Z"
       inkscape:connector-curvature="0"
       style="fill:#e1dfff;fill-opacity:1;fill-rule:evenodd" /><path
       id="path4516"
       d="M 4.4,0.8 4.397,0.804 4.383,0.823 A 4.167,4.167 0 0 0 4.179,1.133 2.327,2.327 0 0 0 4.038,1.4 C 4.012,1.46 4.004,1.492 4.001,1.503 V 1.507 A 0.593,0.593 0 0 0 4.092,1.755 C 4.167,1.888 4.27,2.027 4.4,2.2 L 4.41,2.212 C 4.528,2.37 4.67,2.559 4.78,2.755 4.892,2.955 5,3.21 5,3.5 5,3.688 4.935,3.868 4.881,3.994 A 3.31,3.31 0 0 1 4.679,4.382 5.444,5.444 0 0 1 4.426,4.764 L 4.408,4.789 4.403,4.797 4.401,4.799 A 0.50010049,0.50010049 0 0 1 3.6,4.2 L 3.603,4.196 3.617,4.177 A 4.149,4.149 0 0 0 3.821,3.867 2.06,2.06 0 0 0 3.962,3.6 C 3.988,3.54 3.996,3.508 3.999,3.497 A 0.593,0.593 0 0 0 3.909,3.245 4.334,4.334 0 0 0 3.6,2.8 L 3.59,2.788 A 5.099,5.099 0 0 1 3.22,2.245 1.53,1.53 0 0 1 3,1.5 C 3,1.312 3.065,1.132 3.119,1.006 3.178,0.868 3.253,0.732 3.321,0.618 A 5.446,5.446 0 0 1 3.574,0.236 L 3.599,0.201 A 0.50010049,0.50010049 0 0 1 4.4,0.8 Z m 3,0 L 7.397,0.804 7.383,0.823 A 4.167,4.167 0 0 0 7.179,1.133 2.327,2.327 0 0 0 7.038,1.4 C 7.012,1.46 7.004,1.492 7.001,1.503 V 1.507 A 0.593,0.593 0 0 0 7.092,1.755 C 7.167,1.888 7.27,2.027 7.4,2.2 L 7.41,2.212 C 7.528,2.37 7.67,2.559 7.78,2.755 7.892,2.955 8,3.21 8,3.5 8,3.688 7.935,3.868 7.881,3.994 A 3.31,3.31 0 0 1 7.679,4.382 5.444,5.444 0 0 1 7.426,4.764 L 7.408,4.789 7.403,4.797 7.401,4.799 A 0.50010049,0.50010049 0 0 1 6.6,4.2 L 6.603,4.196 6.617,4.177 A 4.149,4.149 0 0 0 6.821,3.867 2.06,2.06 0 0 0 6.962,3.6 C 6.988,3.54 6.996,3.508 6.999,3.497 A 0.593,0.593 0 0 0 6.909,3.245 4.334,4.334 0 0 0 6.6,2.8 L 6.59,2.788 A 5.099,5.099 0 0 1 6.22,2.245 1.53,1.53 0 0 1 6,1.5 C 6,1.312 6.065,1.132 6.119,1.006 6.178,0.868 6.253,0.732 6.321,0.618 A 5.446,5.446 0 0 1 6.574,0.236 L 6.599,0.201 A 0.50010049,0.50010049 0 0 1 7.4,0.8 Z m 3,0 -0.003,0.004 -0.014,0.019 A 4.077,4.077 0 0 0 10.179,1.133 2.337,2.337 0 0 0 10.038,1.4 c -0.026,0.06 -0.034,0.092 -0.037,0.103 v 0.004 a 0.593,0.593 0 0 0 0.091,0.248 C 10.167,1.888 10.27,2.027 10.4,2.2 l 0.01,0.012 C 10.528,2.37 10.67,2.559 10.78,2.755 10.892,2.955 11,3.21 11,3.5 11,3.688 10.935,3.868 10.881,3.994 A 3.198,3.198 0 0 1 10.679,4.382 5.385,5.385 0 0 1 10.427,4.764 L 10.408,4.789 10.403,4.797 10.401,4.799 A 0.50010049,0.50010049 0 0 1 9.6,4.2 L 9.603,4.196 9.617,4.177 A 4.149,4.149 0 0 0 9.821,3.867 2.06,2.06 0 0 0 9.962,3.6 C 9.988,3.54 9.996,3.508 9.999,3.497 A 0.593,0.593 0 0 0 9.909,3.245 4.334,4.334 0 0 0 9.6,2.8 L 9.59,2.788 A 5.099,5.099 0 0 1 9.22,2.245 1.53,1.53 0 0 1 9,1.5 C 9,1.312 9.065,1.132 9.119,1.006 9.178,0.868 9.253,0.732 9.321,0.618 A 5.446,5.446 0 0 1 9.574,0.236 L 9.599,0.201 A 0.50010049,0.50010049 0 0 1 10.4,0.8 Z"
       inkscape:connector-curvature="0"
       style="fill:#e1dfff;fill-opacity:1" /></g></svg>